<svg width="11" height="15" viewBox="0 0 11 15" fill="none" xmlns="http://www.w3.org/2000/svg">
<path d="M8.9955 1.86192C7.72183 0.953029 6.04513 0.591359 4.39619 0.869354C2.17629 1.24353 0.393382 2.86618 0.0605179 4.81539C-0.21099 6.40602 0.441604 7.99455 1.80627 9.06493C2.42115 9.54716 2.79211 10.2417 2.85102 11.021C2.85215 11.0351 2.85534 11.0488 2.8589 11.0622V13.5057C2.8589 13.6402 2.98481 13.7494 3.14036 13.7494H3.42087C3.53514 14.4576 4.13632 15 4.8604 15H6.1382C6.86228 15 7.46327 14.4576 7.57754 13.7494H7.85806C8.01342 13.7494 8.13951 13.6402 8.13951 13.5057V11.0232L8.1397 11.0216C8.1397 10.2967 8.51985 9.59655 9.21034 9.05031C10.3478 8.15052 11 6.8707 11 5.53922C11.0002 4.11139 10.2695 2.77096 8.9955 1.86192ZM4.50408 6.48726H4.07159C3.8331 6.48726 3.63909 6.31926 3.63909 6.11276C3.63909 5.90625 3.8331 5.73825 4.07159 5.73825C4.31007 5.73825 4.50408 5.90625 4.50408 6.11276V6.48726ZM6.4947 6.11276C6.4947 5.90625 6.68872 5.73825 6.92739 5.73825C7.16587 5.73825 7.35989 5.90625 7.35989 6.11276C7.35989 6.31926 7.16587 6.48726 6.92739 6.48726H6.49527L6.4947 6.11276ZM6.32527 11.248H7.57679V13.262H7.31917L7.31729 13.2618L7.31542 13.262H3.68318L3.68131 13.2618L3.67943 13.262H3.422V11.248H6.11756M5.06699 10.7605V6.97469H5.9333L5.93968 10.7605H5.06699ZM6.1382 14.5126H4.8604C4.44048 14.5126 4.08791 14.187 3.99034 13.7494H7.00807C6.91069 14.187 6.55812 14.5126 6.1382 14.5126ZM8.83075 8.69059C8.10423 9.26526 7.67417 9.9925 7.59368 10.7605H6.50239L6.4962 6.97469H6.92739C7.47622 6.97469 7.92279 6.588 7.92279 6.11276C7.92279 5.63752 7.47622 5.25082 6.92739 5.25082C6.37837 5.25082 5.9318 5.63752 5.9318 6.11308L5.93236 6.48726H5.06699V6.11276C5.06699 5.63752 4.62042 5.25082 4.07159 5.25082C3.52275 5.25082 3.07618 5.63752 3.07618 6.11276C3.07618 6.588 3.52275 6.97469 4.07159 6.97469H4.50408V10.7605H3.38353C3.26419 9.94734 2.84614 9.2227 2.18398 8.70359C0.959101 7.74271 0.373305 6.31585 0.61723 4.88656C0.915757 3.13832 2.51384 1.68319 4.50352 1.34768C5.98734 1.09779 7.49405 1.42209 8.63712 2.23805C9.78094 3.05416 10.4369 4.25745 10.4369 5.53938C10.4373 6.73422 9.85168 7.88293 8.83075 8.69059Z" fill="black"/>
</svg>
