<svg width="16" height="16" viewBox="0 0 16 16" fill="none" xmlns="http://www.w3.org/2000/svg">
<path d="M1.1552 15.1111H3.1424C3.2426 15.1108 3.34174 15.0928 3.43404 15.0582C3.52633 15.0235 3.60994 14.9728 3.68 14.9092C3.74897 14.8466 3.80296 14.7722 3.8387 14.6906C3.87445 14.6089 3.89122 14.5217 3.888 14.4341C3.8176 12.443 3.2032 11.4446 2.7488 10.981C2.89388 10.8973 3.01589 10.7856 3.10577 10.6542C3.19566 10.5229 3.25111 10.3752 3.26802 10.2222C3.28492 10.0692 3.26285 9.91473 3.20343 9.77033C3.14402 9.62594 3.04878 9.49529 2.9248 9.38809C4.1472 8.8192 6.4768 7.20071 6.5792 2.94542H9.4208C9.5232 7.21208 11.8528 8.82773 13.0752 9.38809C12.9512 9.49529 12.856 9.62594 12.7966 9.77033C12.7372 9.91473 12.7151 10.0692 12.732 10.2222C12.7489 10.3752 12.8043 10.5229 12.8942 10.6542C12.9841 10.7856 13.1061 10.8973 13.2512 10.981C12.7968 11.4446 12.1824 12.4345 12.112 14.4341C12.1088 14.5217 12.1255 14.6089 12.1613 14.6906C12.197 14.7722 12.251 14.8466 12.32 14.9092C12.3901 14.9728 12.4737 15.0235 12.566 15.0582C12.6583 15.0928 12.7574 15.1108 12.8576 15.1111H14.8448C14.9965 15.1111 15.1467 15.0845 15.2869 15.0329C15.427 14.9813 15.5544 14.9057 15.6616 14.8104C15.7689 14.715 15.854 14.6018 15.9121 14.4772C15.9701 14.3526 16 14.2191 16 14.0843V1.91573C16 1.64339 15.8783 1.38221 15.6616 1.18964C15.445 0.997071 15.1512 0.888885 14.8448 0.888885H1.1552C0.848822 0.888885 0.554992 0.997071 0.33835 1.18964C0.121708 1.38221 0 1.64339 0 1.91573V14.0843C0 14.3566 0.121708 14.6178 0.33835 14.8104C0.554992 15.0029 0.848822 15.1111 1.1552 15.1111ZM2.1152 10.5799H0.64V9.664H2.1152C2.25184 9.664 2.38288 9.71224 2.4795 9.79813C2.57612 9.88401 2.6304 10.0005 2.6304 10.122C2.6304 10.2434 2.57612 10.3599 2.4795 10.4458C2.38288 10.5317 2.25184 10.5799 2.1152 10.5799ZM0.9152 9.09511H0.64V2.94542H3.6608C3.5744 7.78382 1.2544 8.95004 0.9152 9.09511ZM0.64 14.0843V11.1488H0.848C1.0304 11.3508 1.5968 12.1643 1.6384 14.5422H1.1552C1.01856 14.5422 0.887517 14.494 0.790898 14.4081C0.69428 14.3222 0.64 14.2057 0.64 14.0843ZM3.1424 14.5422H2.2784C2.24 12.6734 1.9008 11.6693 1.6 11.1488H2.0256C2.2528 11.2967 3.1616 12.0277 3.248 14.4512C3.24801 14.4634 3.24526 14.4755 3.23991 14.4867C3.23457 14.4979 3.22674 14.5081 3.21689 14.5166C3.20704 14.5251 3.19537 14.5317 3.18257 14.5361C3.16977 14.5405 3.15611 14.5426 3.1424 14.5422ZM2.0704 9.09511H2.0192C2.9472 8.33564 4.2368 6.62044 4.3008 2.94542H5.9392C5.8144 7.92604 2.48 8.98417 2.0704 9.09511ZM10.0704 2.94542H11.7088C11.7728 6.62044 13.0624 8.34986 13.9904 9.09511H13.9392C13.5488 8.98702 10.1856 7.89475 10.0608 2.94542H10.0704ZM13.9104 10.5799C13.7738 10.5799 13.6427 10.5317 13.5461 10.4458C13.4495 10.3599 13.3952 10.2434 13.3952 10.122C13.3952 10.0005 13.4495 9.88401 13.5461 9.79813C13.6427 9.71224 13.7738 9.664 13.9104 9.664H15.36V10.5799H13.9104ZM15.36 9.09511H15.0848C14.7392 8.9472 12.4256 7.77813 12.3392 2.94542H15.36V9.09511ZM12.752 14.4512C12.8384 12.0192 13.7536 11.291 13.9744 11.1488H14.4C14.0992 11.6693 13.76 12.6734 13.7216 14.5422H12.8576C12.8439 14.5426 12.8302 14.5405 12.8174 14.5361C12.8046 14.5317 12.793 14.5251 12.7831 14.5166C12.7733 14.5081 12.7654 14.4979 12.7601 14.4867C12.7547 14.4755 12.752 14.4634 12.752 14.4512ZM15.36 14.0843C15.36 14.2057 15.3057 14.3222 15.2091 14.4081C15.1125 14.494 14.9814 14.5422 14.8448 14.5422H14.3616C14.4064 12.1472 14.976 11.3394 15.152 11.1488H15.36V14.0843ZM0.64 1.91573C0.64 1.79427 0.69428 1.67779 0.790898 1.59191C0.887517 1.50602 1.01856 1.45777 1.1552 1.45777H14.8448C14.9814 1.45777 15.1125 1.50602 15.2091 1.59191C15.3057 1.67779 15.36 1.79427 15.36 1.91573V2.37653H0.64V1.91573Z" fill="black"/>
</svg>
