<svg width="16" height="16" viewBox="0 0 16 16" fill="none" xmlns="http://www.w3.org/2000/svg">
<path d="M0.908387 0.888885C0.406898 0.888885 0 1.25103 0 1.69738V14.3026C0 14.749 0.406898 15.1111 0.908387 15.1111H15.0916C15.5931 15.1111 16 14.749 16 14.3026V1.69738C16 1.25103 15.5931 0.888885 15.0916 0.888885H0.908387ZM1.30065 1.25638H14.6994C15.1739 1.25638 15.5665 1.60571 15.5665 2.02813V13.9719C15.5665 14.3943 15.1739 14.7252 14.6994 14.7252H1.30065C0.826064 14.7252 0.433548 14.3943 0.433548 13.9719V2.02813C0.433548 1.60571 0.826064 1.25638 1.30065 1.25638ZM7.98968 3.07551C4.93836 3.07551 2.47742 5.28415 2.47742 8C2.47742 10.7158 4.93836 12.9245 7.98968 12.9245C11.041 12.9245 13.5226 10.7158 13.5226 8C13.5226 5.28415 11.041 3.07551 7.98968 3.07551ZM7.98968 3.49813C10.7805 3.49813 13.0477 5.516 13.0477 8C13.0477 10.4839 10.7805 12.5019 7.98968 12.5019C5.19883 12.5019 2.95226 10.4839 2.95226 8C2.95226 5.516 5.19883 3.49813 7.98968 3.49813ZM5.71871 7.24662C5.25357 7.24662 4.87226 7.58599 4.87226 8C4.87226 8.41395 5.25357 8.75337 5.71871 8.75337C6.18385 8.75337 6.56516 8.41395 6.56516 8C6.56516 7.58599 6.18385 7.24662 5.71871 7.24662ZM10.2813 7.24662C9.81615 7.24662 9.43484 7.58599 9.43484 8C9.43484 8.41395 9.81615 8.75337 10.2813 8.75337C10.7464 8.75337 11.1071 8.41395 11.1071 8C11.1071 7.58599 10.7464 7.24662 10.2813 7.24662Z" fill="#363838"/>
</svg>
